<svg xmlns="http://www.w3.org/2000/svg" version="1.1" xmlns:xlink="http://www.w3.org/1999/xlink" xmlns:svgjs="http://svgjs.dev/svgjs" width="128" height="128" viewBox="0 0 128 128"><g transform="matrix(0.8046875,0,0,0.8046875,12.221578124999994,18.860675871411388)"><svg viewBox="0 0 96 84" data-background-color="#fec7d7" preserveAspectRatio="xMidYMid meet" height="112" width="128" xmlns="http://www.w3.org/2000/svg" xmlns:xlink="http://www.w3.org/1999/xlink"><g id="tight-bounds" transform="matrix(1,0,0,1,0.25950000000000273,0.07160307130588706)"><svg viewBox="0 0 95.481 82.71734740092867" height="82.71734740092867" width="95.481"><g><svg viewBox="0 0 95.481 82.71734740092867" height="82.71734740092867" width="95.481"><g><svg viewBox="0 0 95.481 82.71734740092867" height="82.71734740092867" width="95.481"><g id="textblocktransform"><svg viewBox="0 0 95.481 82.71734740092867" height="82.71734740092867" width="95.481" id="textblock"><g><svg viewBox="0 0 95.481 82.71734740092867" height="82.71734740092867" width="95.481"><g><svg viewBox="0 0 95.481 82.71734740092867" height="82.71734740092867" width="95.481"><g><svg xmlns="http://www.w3.org/2000/svg" xmlns:xlink="http://www.w3.org/1999/xlink" version="1.0" x="0" y="0" viewBox="41.32341221585598 42.48346349115535 17.353175568288037 15.033448036692008" enable-background="new 0 0 100 100" xml:space="preserve" height="82.71734740092867" width="95.481" class="icon-icon-0" data-fill-palette-color="accent" id="icon-0"><g fill="#ff1414" data-fill-palette-color="accent"><path d="M58.356 45.334C57.68 43.648 56.302 42.612 54.578 42.494 52.845 42.379 51.1 43.213 50 44.622 48.9 43.212 47.165 42.38 45.422 42.494 43.698 42.612 42.322 43.648 41.644 45.334 40.972 47.007 41.364 48.8 42.749 50.38 43.519 51.261 44.337 52.144 45.179 53.005 46.09 53.937 47.029 54.84 47.969 55.745 48.53 56.285 49.093 56.826 49.649 57.373A0.5 0.5 0 0 0 50.351 57.373C50.907 56.826 51.469 56.285 52.03 55.745 52.971 54.84 53.91 53.937 54.821 53.005 55.663 52.145 56.481 51.26 57.251 50.38 58.636 48.8 59.028 47.007 58.356 45.334M56.5 49.722A64 64 0 0 1 54.106 52.306C53.202 53.23 52.27 54.127 51.338 55.024 50.89 55.454 50.444 55.884 50 56.317 49.556 55.884 49.11 55.453 48.662 55.024A129 129 0 0 1 45.894 52.306 64 64 0 0 1 43.5 49.722C42.851 48.978 41.864 47.468 42.571 45.707 43.108 44.371 44.145 43.584 45.491 43.492 45.576 43.486 45.663 43.482 45.75 43.482 47.264 43.483 48.771 44.376 49.565 45.766 49.745 46.076 50.255 46.076 50.435 45.765 51.275 44.295 52.915 43.386 54.51 43.492 55.855 43.584 56.892 44.37 57.429 45.707 58.136 47.468 57.149 48.978 56.499 49.722" fill="#ff1414" data-fill-palette-color="accent"></path></g></svg></g></svg></g></svg></g></svg></g></svg></g></svg></g><defs></defs></svg><rect width="95.481" height="82.71734740092867" fill="none" stroke="none" visibility="hidden"></rect></g></svg></g></svg>