<svg xmlns="http://www.w3.org/2000/svg" version="1.1" xmlns:xlink="http://www.w3.org/1999/xlink" xmlns:svgjs="http://svgjs.dev/svgjs" width="1500" height="1500" viewBox="0 0 1500 1500"><rect width="1500" height="1500" fill="#000000"></rect><g transform="matrix(0.6666666666666666,0,0,0.6666666666666666,249.39393939393938,662.0827998175629)"><svg viewBox="0 0 396 69" data-background-color="#fec7d7" preserveAspectRatio="xMidYMid meet" height="261" width="1500" xmlns="http://www.w3.org/2000/svg" xmlns:xlink="http://www.w3.org/1999/xlink"><g id="tight-bounds" transform="matrix(1,0,0,1,0.2400000000000091,0.36371731372508975)"><svg viewBox="0 0 395.52 68.20051045957896" height="68.20051045957896" width="395.52"><g><svg viewBox="0 0 524.4249300747681 90.4279124414143" height="68.20051045957896" width="395.52"><g><rect width="3.932834451379495" height="65.75980608076799" x="114.67671747841615" y="12.33405318032316" fill="#ffffff" opacity="1" stroke-width="0" stroke="transparent" fill-opacity="1" class="rect-yte-0" data-fill-palette-color="primary" rx="1%" id="yte-0" data-palette-color="#0e172c"></rect></g><g transform="matrix(1,0,0,1,128.90493007476815,12.497634787489247)"><svg viewBox="0 0 395.5199999999999 65.43264286643581" height="65.43264286643581" width="395.5199999999999"><g id="textblocktransform"><svg viewBox="0 0 395.5199999999999 65.43264286643581" height="65.43264286643581" width="395.5199999999999" id="textblock"><g><svg viewBox="0 0 395.5199999999999 43.61043962525839" height="43.61043962525839" width="395.5199999999999"><g transform="matrix(1,0,0,1,0,0)"><svg width="395.5199999999999" viewBox="0 -35.21 322.31 35.71" height="43.61043962525839" data-palette-color="#0e172c"><g class="wordmark-text-0" data-fill-palette-color="primary" id="text-0"><path d="M2.29-7.35L3.1-7.35 7.2-6.91 8.96-6.91Q12.35-6.91 13.88-8.3 15.41-9.69 15.41-12.99L15.41-12.99 15.41-32.69Q15.41-33.64 16.08-34.33 16.75-35.01 17.7-35.01L17.7-35.01 22.24-35.01Q23.24-35.01 23.93-34.33 24.61-33.64 24.61-32.69L24.61-32.69 24.61-13.06Q24.61-6.81 20.46-3.41 16.31 0 9.2 0L9.2 0 2.29 0Q1.34 0 0.67-0.67 0-1.34 0-2.29L0-2.29 0-5.05Q0-6.01 0.65-6.68 1.29-7.35 2.29-7.35L2.29-7.35ZM32.31-1.76Q29.07-4 29.07-8.11 29.07-12.21 32.31-14.4 35.54-16.6 40.65-16.6L40.65-16.6 48.73-16.6Q48.73-19.46 47.53-20.58 46.34-21.7 43.34-21.7 40.35-21.7 39.15-20.23 37.94-18.75 36.18-18.75L36.18-18.75 32.54-18.75Q31.88-18.75 31.46-19.18 31.03-19.6 31.03-20.24L31.03-20.24Q31.03-27.25 44.33-27.25L44.33-27.25Q50.14-27.25 53.66-24.65 57.18-22.05 57.18-16.6L57.18-16.6 57.18-1.49Q57.18-0.83 56.76-0.42 56.35 0 55.69 0L55.69 0 50.97 0Q50.31 0 49.9-0.43 49.48-0.85 49.48-1.49L49.48-1.49 49.48-2.25Q45.63 0.51 40.59 0.5 35.54 0.49 32.31-1.76ZM41.23-11.06Q39.52-11.06 38.54-10.23 37.55-9.4 37.55-8.08 37.55-6.76 38.57-5.91 39.6-5.05 41.48-5.05L41.48-5.05Q45.24-5.05 48.73-7.25L48.73-7.25 48.73-11.06 41.23-11.06ZM63.18-1.49L63.18-1.49 63.18-25.24Q63.18-25.9 63.61-26.33 64.03-26.76 64.67-26.76L64.67-26.76 70.14-26.76Q70.77-26.76 71.2-26.33 71.63-25.9 71.63-25.24L71.63-25.24 71.63-23.71Q75.83-27.25 80.57-27.25 85.32-27.25 88.3-24.35 91.28-21.46 91.28-15.5L91.28-15.5 91.28-1.49Q91.28-0.85 90.85-0.43 90.42 0 89.77 0L89.77 0 84.32 0Q83.69 0 83.26-0.43 82.83-0.85 82.83-1.49L82.83-1.49 82.83-15.5Q82.83-21.34 78.17-21.34L78.17-21.34Q75.12-21.34 71.63-17.85L71.63-17.85 71.63-1.49Q71.63-0.85 71.2-0.43 70.77 0 70.14 0L70.14 0 64.67 0Q64.03 0 63.61-0.43 63.18-0.85 63.18-1.49ZM99.53-3.08Q95.77-6.64 95.77-13.34 95.77-20.04 99.55-23.65 103.34-27.25 110.05-27.25 116.76-27.25 120.52-23.74 124.28-20.24 124.28-13.7L124.28-13.7 124.28-12.3Q124.28-11.65 123.86-11.22 123.43-10.79 122.77-10.79L122.77-10.79 104.39-10.79Q104.63-7.79 106.11-6.42 107.59-5.05 110.83-5.05 114.08-5.05 115.28-6.52 116.47-7.98 118.23-8.01L118.23-8.01 121.87-8.01Q122.53-8.01 122.95-7.58 123.38-7.15 123.38-6.49L123.38-6.49Q123.38 0.51 110.03 0.49L110.03 0.49Q103.29 0.49 99.53-3.08ZM104.34-15.94L104.34-15.94 115.69-15.94Q115.45-21.7 110.04-21.7 104.63-21.7 104.34-15.94Z" fill="#ffffff" data-fill-palette-color="primary"></path><path d="M143.27-8.96L143.27-8.96Q143.27-10.4 144.13-11.02 144.98-11.65 145.79-11.65L145.79-11.65 148.69-11.65Q150.89-11.65 152.04-9.25 153.18-6.86 157.19-6.86L157.19-6.86 165.73-6.69Q170.03-6.69 170.03-9.5L170.03-9.5Q170.03-11.62 164.78-12.84L164.78-12.84Q162.44-13.4 159.6-13.95 156.77-14.5 153.98-15.33 151.18-16.16 148.84-17.29 146.49-18.41 145.04-20.37 143.59-22.34 143.59-25L143.59-25Q143.59-29.91 147.08-32.56 150.57-35.21 159.09-35.21L159.09-35.21 165.29-35.06Q170.3-35.06 174.31-32.48 178.33-29.91 178.33-26.05L178.33-26.05Q178.33-24.61 177.48-23.97 176.62-23.34 175.84-23.34L175.84-23.34 172.93-23.34Q170.74-23.34 169.59-25.74 168.44-28.15 164.44-28.15L164.44-28.15 157.09-28.3Q152.79-28.3 152.79-25.49L152.79-25.49Q152.79-23.95 155.52-22.97 158.24-22 162.11-21.25 165.98-20.51 169.88-19.46 173.79-18.41 176.51-16 179.23-13.6 179.23-10.01L179.23-10.01Q179.23-5.1 175.73-2.45 172.23 0.2 163.73 0.2L163.73 0.2 156.33 0.05Q151.33 0.05 147.3-2.53 143.27-5.1 143.27-8.96ZM196.67 0.49Q189.83 0.49 186.02-3.03 182.21-6.54 182.21-13.37 182.21-20.19 185.99-23.72 189.78-27.25 196.53-27.25 203.28-27.25 206.9-25.1 210.53-22.95 210.53-18.75L210.53-18.75Q210.53-18.09 210.1-17.68 209.68-17.26 209.02-17.26L209.02-17.26 205.38-17.26Q203.72-17.26 202.57-19.04L202.57-19.04Q201.13-21.34 197.48-21.34 193.83-21.34 192.38-19.47 190.93-17.6 190.93-13.38 190.93-9.16 192.43-7.28 193.93-5.4 197.65-5.4 201.37-5.4 202.82-7.69L202.82-7.69Q203.96-9.5 205.62-9.5L205.62-9.5 209.26-9.5Q209.92-9.5 210.35-9.07 210.77-8.64 210.77-8.01L210.77-8.01Q210.77-3.81 207.15-1.66 203.52 0.49 196.67 0.49ZM214.78-1.49L214.78-1.49 214.78-33.5Q214.78-34.16 215.2-34.58 215.63-35.01 216.26-35.01L216.26-35.01 221.73-35.01Q222.37-35.01 222.8-34.58 223.22-34.16 223.22-33.5L223.22-33.5 223.22-23.71Q227.42-27.25 232.17-27.25 236.92-27.25 239.9-24.35 242.88-21.46 242.88-15.5L242.88-15.5 242.88-1.49Q242.88-0.85 242.45-0.43 242.02 0 241.36 0L241.36 0 235.92 0Q235.28 0 234.86-0.43 234.43-0.85 234.43-1.49L234.43-1.49 234.43-15.5Q234.43-21.34 229.77-21.34L229.77-21.34Q226.71-21.34 223.22-17.85L223.22-17.85 223.22-1.49Q223.22-0.85 222.8-0.43 222.37 0 221.73 0L221.73 0 216.26 0Q215.63 0 215.2-0.43 214.78-0.85 214.78-1.49ZM251.17-3.03Q247.37-6.54 247.37-13.39 247.37-20.24 251.17-23.74 254.98-27.25 262.12-27.25 269.27-27.25 273.07-23.74 276.88-20.24 276.88-13.39 276.88-6.54 273.07-3.03 269.27 0.49 262.12 0.49 254.98 0.49 251.17-3.03ZM257.35-19.73Q255.84-17.75 255.84-13.4 255.84-9.06 257.35-7.06 258.86-5.05 262.12-5.05 265.38-5.05 266.91-7.06 268.44-9.06 268.44-13.4 268.44-17.75 266.91-19.73 265.38-21.7 262.12-21.7 258.86-21.7 257.35-19.73ZM283.67-3.03Q279.86-6.54 279.86-13.39 279.86-20.24 283.67-23.74 287.48-27.25 294.62-27.25 301.76-27.25 305.57-23.74 309.37-20.24 309.37-13.39 309.37-6.54 305.57-3.03 301.76 0.49 294.62 0.49 287.48 0.49 283.67-3.03ZM289.84-19.73Q288.33-17.75 288.33-13.4 288.33-9.06 289.84-7.06 291.36-5.05 294.62-5.05 297.88-5.05 299.4-7.06 300.93-9.06 300.93-13.4 300.93-17.75 299.4-19.73 297.88-21.7 294.62-21.7 291.36-21.7 289.84-19.73ZM313.86-1.49L313.86-1.49 313.86-33.5Q313.86-34.16 314.29-34.58 314.72-35.01 315.35-35.01L315.35-35.01 320.82-35.01Q321.46-35.01 321.88-34.58 322.31-34.16 322.31-33.5L322.31-33.5 322.31-1.49Q322.31-0.85 321.88-0.43 321.46 0 320.82 0L320.82 0 315.35 0Q314.72 0 314.29-0.43 313.86-0.85 313.86-1.49Z" fill="#ffffff" data-fill-palette-color="accent"></path></g></svg></g></svg></g><g transform="matrix(1,0,0,1,39.55199999999999,53.90581777023088)"><svg viewBox="0 0 316.41599999999994 11.526825096204929" height="11.526825096204929" width="316.41599999999994"><g transform="matrix(1,0,0,1,0,0)"><svg width="316.41599999999994" viewBox="3 -35.5 1214.2533333333336 44.24" height="11.526825096204929" data-palette-color="#0e172c"><path d="M3-13.84L3-13.84 3-32.69Q3-33.64 3.67-34.33 4.35-35.01 5.35-35.01L5.35-35.01 9.91-35.01Q10.84-35.01 11.52-34.33 12.21-33.64 12.21-32.69L12.21-32.69 12.21-13.79Q12.21-10.21 13.78-8.45 15.36-6.69 18.65-6.69L18.65-6.69 22.56-6.69Q25.85-6.69 27.43-8.45 29-10.21 29-13.79L29-13.79 29-32.69Q29-33.64 29.68-34.33 30.35-35.01 31.3-35.01L31.3-35.01 35.84-35.01Q36.84-35.01 37.52-34.33 38.21-33.64 38.21-32.69L38.21-32.69 38.21-13.84Q38.21-7.15 34.28-3.48 30.35 0.2 22.8 0.2L22.8 0.2 18.41 0.2Q10.84 0.2 6.92-3.48 3-7.15 3-13.84ZM44.21-1.49L44.21-1.49 44.21-25.24Q44.21-25.9 44.64-26.33 45.07-26.76 45.7-26.76L45.7-26.76 51.17-26.76Q51.8-26.76 52.23-26.33 52.66-25.9 52.66-25.24L52.66-25.24 52.66-23.71Q56.86-27.25 61.61-27.25 66.35-27.25 69.33-24.35 72.31-21.46 72.31-15.5L72.31-15.5 72.31-1.49Q72.31-0.85 71.88-0.43 71.46 0 70.8 0L70.8 0 65.35 0Q64.72 0 64.29-0.43 63.86-0.85 63.86-1.49L63.86-1.49 63.86-15.5Q63.86-21.34 59.2-21.34L59.2-21.34Q56.15-21.34 52.66-17.85L52.66-17.85 52.66-1.49Q52.66-0.85 52.23-0.43 51.8 0 51.17 0L51.17 0 45.7 0Q45.07 0 44.64-0.43 44.21-0.85 44.21-1.49ZM78.32-1.49L78.32-1.49 78.32-33.5Q78.32-34.16 78.74-34.58 79.17-35.01 79.8-35.01L79.8-35.01 85.27-35.01Q85.91-35.01 86.34-34.58 86.76-34.16 86.76-33.5L86.76-33.5 86.76-1.49Q86.76-0.85 86.34-0.43 85.91 0 85.27 0L85.27 0 79.8 0Q79.17 0 78.74-0.43 78.32-0.85 78.32-1.49ZM95.06-3.03Q91.25-6.54 91.25-13.39 91.25-20.24 95.06-23.74 98.87-27.25 106.01-27.25 113.15-27.25 116.96-23.74 120.77-20.24 120.77-13.39 120.77-6.54 116.96-3.03 113.15 0.49 106.01 0.49 98.87 0.49 95.06-3.03ZM101.24-19.73Q99.72-17.75 99.72-13.4 99.72-9.06 101.24-7.06 102.75-5.05 106.01-5.05 109.27-5.05 110.8-7.06 112.32-9.06 112.32-13.4 112.32-17.75 110.8-19.73 109.27-21.7 106.01-21.7 102.75-21.7 101.24-19.73ZM138.21 0.49Q131.36 0.49 127.55-3.03 123.74-6.54 123.74-13.37 123.74-20.19 127.53-23.72 131.31-27.25 138.06-27.25 144.81-27.25 148.44-25.1 152.07-22.95 152.07-18.75L152.07-18.75Q152.07-18.09 151.64-17.68 151.21-17.26 150.55-17.26L150.55-17.26 146.91-17.26Q145.25-17.26 144.11-19.04L144.11-19.04Q142.67-21.34 139.02-21.34 135.37-21.34 133.91-19.47 132.46-17.6 132.46-13.38 132.46-9.16 133.96-7.28 135.46-5.4 139.19-5.4 142.91-5.4 144.35-7.69L144.35-7.69Q145.5-9.5 147.16-9.5L147.16-9.5 150.8-9.5Q151.45-9.5 151.88-9.07 152.31-8.64 152.31-8.01L152.31-8.01Q152.31-3.81 148.68-1.66 145.06 0.49 138.21 0.49ZM183.29-1.07L183.29-1.07Q183.29 0 182.02 0L182.02 0 177.4 0Q175.06 0 173.67-2.29L173.67-2.29 170.57-7.35Q168.57-10.6 164.76-10.6L164.76-10.6 164.76-1.49Q164.76-0.83 164.33-0.42 163.9 0 163.27 0L163.27 0 157.8 0Q157.14 0 156.73-0.42 156.31-0.83 156.31-1.49L156.31-1.49 156.31-33.5Q156.31-34.16 156.74-34.58 157.17-35.01 157.8-35.01L157.8-35.01 163.27-35.01Q163.93-35.01 164.34-34.58 164.76-34.16 164.76-33.5L164.76-33.5 164.76-16.16Q169.01-16.16 170.57-19.46L170.57-19.46 172.91-24.44Q173.4-25.49 174.35-26.12 175.3-26.76 176.4-26.76L176.4-26.76 181.02-26.76Q182.24-26.76 182.24-25.81L182.24-25.81Q182.24-25.27 181.85-24.44L181.85-24.44 178.7-17.8Q177.89-16.14 176.5-14.94 175.11-13.75 173.5-13.4L173.5-13.4Q176.5-12.5 178.7-9.01L178.7-9.01 182.85-2.29Q183.26-1.59 183.29-1.07ZM201.79-33.84L201.79-33.84Q201.79-35.01 203.06-35.01L203.06-35.01 207.7-35.01Q210.46-35.01 211.95-32.69L211.95-32.69 219.86-20.51 227.74-32.69Q229.25-35.01 231.99-35.01L231.99-35.01 236.65-35.01Q237.9-35.01 237.9-33.84L237.9-33.84Q237.9-33.3 237.51-32.69L237.51-32.69 224.45-12.5 224.45-2.25Q224.45-1.29 223.77-0.65 223.1 0 222.15 0L222.15 0 217.56 0Q216.61 0 215.92-0.65 215.24-1.29 215.24-2.25L215.24-2.25 215.24-12.5 202.2-32.69Q201.79-33.3 201.79-33.84ZM241.26-3.03Q237.46-6.54 237.46-13.39 237.46-20.24 241.26-23.74 245.07-27.25 252.21-27.25 259.36-27.25 263.16-23.74 266.97-20.24 266.97-13.39 266.97-6.54 263.16-3.03 259.36 0.49 252.21 0.49 245.07 0.49 241.26-3.03ZM247.44-19.73Q245.93-17.75 245.93-13.4 245.93-9.06 247.44-7.06 248.95-5.05 252.21-5.05 255.47-5.05 257-7.06 258.52-9.06 258.52-13.4 258.52-17.75 257-19.73 255.47-21.7 252.21-21.7 248.95-21.7 247.44-19.73ZM271.46-11.25L271.46-11.25 271.46-25.24Q271.46-25.9 271.89-26.33 272.32-26.76 272.95-26.76L272.95-26.76 278.42-26.76Q279.05-26.76 279.48-26.33 279.91-25.9 279.91-25.24L279.91-25.24 279.91-11.25Q279.91-5.4 284.55-5.4L284.55-5.4Q287.6-5.4 291.12-8.91L291.12-8.91 291.12-25.24Q291.12-25.9 291.54-26.33 291.97-26.76 292.6-26.76L292.6-26.76 298.05-26.76Q298.71-26.76 299.14-26.33 299.56-25.9 299.56-25.24L299.56-25.24 299.56-1.49Q299.56-0.85 299.14-0.43 298.71 0 298.05 0L298.05 0 292.6 0Q291.97 0 291.54-0.43 291.12-0.85 291.12-1.49L291.12-1.49 291.12-3.05Q286.92 0.49 282.17 0.49 277.42 0.49 274.44-2.4 271.46-5.3 271.46-11.25ZM324.85-20.56L324.07-20.56 320.31-20.7Q317.02-20.7 314.01-17.09L314.01-17.09 314.01-1.49Q314.01-0.83 313.59-0.42 313.16 0 312.52 0L312.52 0 307.06 0Q306.4 0 305.98-0.42 305.57-0.83 305.57-1.49L305.57-1.49 305.57-25.24Q305.57-25.9 305.99-26.33 306.42-26.76 307.06-26.76L307.06-26.76 312.52-26.76Q313.18-26.76 313.6-26.33 314.01-25.9 314.01-25.24L314.01-25.24 314.01-23.71Q316.5-25.51 318.81-26.38 321.12-27.25 324.85-27.25L324.85-27.25Q325.51-27.25 325.94-26.82 326.37-26.39 326.37-25.76L326.37-25.76 326.37-22.05Q326.37-21.39 325.94-20.97 325.51-20.56 324.85-20.56L324.85-20.56ZM347.85-2.29L347.85-2.29 347.85-32.69Q347.85-33.64 348.51-34.33 349.16-35.01 350.12-35.01L350.12-35.01 368.74-35.01Q383.51-35.01 383.51-21.4 383.51-7.79 368.74-7.79L368.74-7.79 357.05-7.79 357.05-2.29Q357.05-1.34 356.38-0.67 355.71 0 354.76 0L354.76 0 350.17 0Q349.21 0 348.53-0.67 347.85-1.34 347.85-2.29ZM357.05-28.1L357.05-14.7 365.96-14.7Q370.06-14.7 372.19-16.08 374.31-17.46 374.31-21.4 374.31-25.34 372.19-26.72 370.06-28.1 365.96-28.1L365.96-28.1 357.05-28.1ZM389.81-3.03Q386-6.54 386-13.39 386-20.24 389.81-23.74 393.62-27.25 400.76-27.25 407.9-27.25 411.71-23.74 415.52-20.24 415.52-13.39 415.52-6.54 411.71-3.03 407.9 0.49 400.76 0.49 393.62 0.49 389.81-3.03ZM395.99-19.73Q394.47-17.75 394.47-13.4 394.47-9.06 395.99-7.06 397.5-5.05 400.76-5.05 404.02-5.05 405.55-7.06 407.07-9.06 407.07-13.4 407.07-17.75 405.55-19.73 404.02-21.7 400.76-21.7 397.5-21.7 395.99-19.73ZM432.75-5.3L432.75-5.3 436.1-5.59 437-5.59Q437.66-5.59 438.09-5.18 438.51-4.76 438.51-4.1L438.51-4.1 438.51-1.49Q438.51-0.95 438.09-0.52 437.66-0.1 437 0L437 0Q434.51 0.49 430.51 0.49L430.51 0.49Q420.01 0.49 420.01-10.5L420.01-10.5 420.01-33.5Q420.01-34.16 420.44-34.58 420.86-35.01 421.5-35.01L421.5-35.01 426.97-35.01Q427.6-35.01 428.03-34.58 428.46-34.16 428.46-33.5L428.46-33.5 428.46-25.34 435.27-25.34Q435.9-25.34 436.33-24.93 436.76-24.51 436.76-23.85L436.76-23.85 436.76-20.95Q436.76-20.29 436.33-19.87 435.9-19.46 435.27-19.46L435.27-19.46 428.46-19.46 428.46-10.5Q428.46-8.01 429.63-6.65 430.8-5.3 432.75-5.3ZM444.52-3.08Q440.76-6.64 440.76-13.34 440.76-20.04 444.54-23.65 448.33-27.25 455.04-27.25 461.75-27.25 465.51-23.74 469.27-20.24 469.27-13.7L469.27-13.7 469.27-12.3Q469.27-11.65 468.85-11.22 468.42-10.79 467.76-10.79L467.76-10.79 449.38-10.79Q449.62-7.79 451.1-6.42 452.57-5.05 455.82-5.05 459.07-5.05 460.27-6.52 461.46-7.98 463.22-8.01L463.22-8.01 466.86-8.01Q467.52-8.01 467.94-7.58 468.37-7.15 468.37-6.49L468.37-6.49Q468.37 0.51 455.02 0.49L455.02 0.49Q448.28 0.49 444.52-3.08ZM449.33-15.94L449.33-15.94 460.68-15.94Q460.44-21.7 455.03-21.7 449.62-21.7 449.33-15.94ZM473.76-1.49L473.76-1.49 473.76-25.24Q473.76-25.9 474.19-26.33 474.62-26.76 475.25-26.76L475.25-26.76 480.72-26.76Q481.36-26.76 481.78-26.33 482.21-25.9 482.21-25.24L482.21-25.24 482.21-23.71Q486.41-27.25 491.16-27.25 495.91-27.25 498.89-24.35 501.86-21.46 501.86-15.5L501.86-15.5 501.86-1.49Q501.86-0.85 501.44-0.43 501.01 0 500.35 0L500.35 0 494.91 0Q494.27 0 493.84-0.43 493.42-0.85 493.42-1.49L493.42-1.49 493.42-15.5Q493.42-21.34 488.75-21.34L488.75-21.34Q485.7-21.34 482.21-17.85L482.21-17.85 482.21-1.49Q482.21-0.85 481.78-0.43 481.36 0 480.72 0L480.72 0 475.25 0Q474.62 0 474.19-0.43 473.76-0.85 473.76-1.49ZM520.61-5.3L520.61-5.3 523.96-5.59 524.86-5.59Q525.52-5.59 525.95-5.18 526.37-4.76 526.37-4.1L526.37-4.1 526.37-1.49Q526.37-0.95 525.95-0.52 525.52-0.1 524.86 0L524.86 0Q522.37 0.49 518.37 0.49L518.37 0.49Q507.87 0.49 507.87-10.5L507.87-10.5 507.87-33.5Q507.87-34.16 508.29-34.58 508.72-35.01 509.36-35.01L509.36-35.01 514.83-35.01Q515.46-35.01 515.89-34.58 516.31-34.16 516.31-33.5L516.31-33.5 516.31-25.34 523.13-25.34Q523.76-25.34 524.19-24.93 524.62-24.51 524.62-23.85L524.62-23.85 524.62-20.95Q524.62-20.29 524.19-19.87 523.76-19.46 523.13-19.46L523.13-19.46 516.31-19.46 516.31-10.5Q516.31-8.01 517.49-6.65 518.66-5.3 520.61-5.3ZM530.37-31.86L530.37-31.86 530.37-32.69Q530.37-33.98 531.12-34.74 531.86-35.5 533.18-35.5L533.18-35.5 536.21-35.5Q537.5-35.5 538.26-34.75 539.02-34.01 539.02-32.69L539.02-32.69 539.02-31.86Q539.02-30.57 538.27-29.81 537.53-29.05 536.21-29.05L536.21-29.05 533.18-29.05Q531.89-29.05 531.13-29.81 530.37-30.57 530.37-31.86ZM530.47-1.49L530.47-1.49 530.47-24.66Q530.47-25.32 530.9-25.73 531.33-26.15 531.96-26.15L531.96-26.15 537.43-26.15Q538.09-26.15 538.5-25.72 538.92-25.29 538.92-24.66L538.92-24.66 538.92-1.49Q538.92-0.83 538.49-0.42 538.07 0 537.43 0L537.43 0 531.96 0Q531.3 0 530.89-0.42 530.47-0.83 530.47-1.49ZM546.74-1.76Q543.51-4 543.51-8.11 543.51-12.21 546.74-14.4 549.98-16.6 555.08-16.6L555.08-16.6 563.16-16.6Q563.16-19.46 561.96-20.58 560.77-21.7 557.78-21.7 554.79-21.7 553.58-20.23 552.37-18.75 550.61-18.75L550.61-18.75 546.97-18.75Q546.31-18.75 545.89-19.18 545.46-19.6 545.46-20.24L545.46-20.24Q545.46-27.25 558.77-27.25L558.77-27.25Q564.58-27.25 568.09-24.65 571.61-22.05 571.61-16.6L571.61-16.6 571.61-1.49Q571.61-0.83 571.19-0.42 570.78 0 570.12 0L570.12 0 565.41 0Q564.75 0 564.33-0.43 563.92-0.85 563.92-1.49L563.92-1.49 563.92-2.25Q560.06 0.51 555.02 0.5 549.98 0.49 546.74-1.76ZM555.67-11.06Q553.96-11.06 552.97-10.23 551.98-9.4 551.98-8.08 551.98-6.76 553-5.91 554.03-5.05 555.91-5.05L555.91-5.05Q559.67-5.05 563.16-7.25L563.16-7.25 563.16-11.06 555.67-11.06ZM577.61-1.49L577.61-1.49 577.61-33.5Q577.61-34.16 578.04-34.58 578.47-35.01 579.1-35.01L579.1-35.01 584.57-35.01Q585.2-35.01 585.63-34.58 586.06-34.16 586.06-33.5L586.06-33.5 586.06-1.49Q586.06-0.85 585.63-0.43 585.2 0 584.57 0L584.57 0 579.1 0Q578.47 0 578.04-0.43 577.61-0.85 577.61-1.49ZM611.86-7.91L614.86-7.91Q618.16-7.91 618.16-4.59L618.16-4.59 618.16-3.05Q618.16-1.51 617.32-0.63 616.47 0.24 614.86 0.24L614.86 0.24 611.86 0.24Q610.25 0.24 609.41-0.63 608.56-1.51 608.56-3.05L608.56-3.05 608.56-4.59Q608.56-6.2 609.42-7.06 610.27-7.91 611.86-7.91L611.86-7.91ZM614.86-19.09L611.86-19.09Q608.56-19.09 608.56-22.41L608.56-22.41 608.56-23.95Q608.56-25.49 609.42-26.37 610.27-27.25 611.86-27.25L611.86-27.25 614.86-27.25Q616.47-27.25 617.32-26.37 618.16-25.49 618.16-23.95L618.16-23.95 618.16-22.41Q618.16-19.09 614.86-19.09L614.86-19.09ZM641.15-2.25L641.15-2.25 641.15-32.64Q641.15-33.64 641.83-34.33 642.52-35.01 643.47-35.01L643.47-35.01 648.06-35.01Q649.01-35.01 649.68-34.33 650.36-33.64 650.36-32.64L650.36-32.64 650.36-6.91 671.62-6.91Q672.57-6.91 673.24-6.23 673.91-5.54 673.91-4.59L673.91-4.59 673.91-2.29Q673.91-1.34 673.24-0.67 672.57 0 671.62 0L671.62 0 643.47 0Q642.52 0 641.83-0.65 641.15-1.29 641.15-2.25ZM679.65-3.08Q675.89-6.64 675.89-13.34 675.89-20.04 679.67-23.65 683.46-27.25 690.17-27.25 696.89-27.25 700.65-23.74 704.41-20.24 704.41-13.7L704.41-13.7 704.41-12.3Q704.41-11.65 703.98-11.22 703.55-10.79 702.89-10.79L702.89-10.79 684.51-10.79Q684.75-7.79 686.23-6.42 687.71-5.05 690.95-5.05 694.2-5.05 695.4-6.52 696.59-7.98 698.35-8.01L698.35-8.01 701.99-8.01Q702.65-8.01 703.07-7.58 703.5-7.15 703.5-6.49L703.5-6.49Q703.5 0.51 690.15 0.49L690.15 0.49Q683.41 0.49 679.65-3.08ZM684.46-15.94L684.46-15.94 695.81-15.94Q695.57-21.7 690.16-21.7 684.75-21.7 684.46-15.94ZM710.62-1.76Q707.38-4 707.38-8.11 707.38-12.21 710.62-14.4 713.85-16.6 718.95-16.6L718.95-16.6 727.03-16.6Q727.03-19.46 725.84-20.58 724.64-21.7 721.65-21.7 718.66-21.7 717.45-20.23 716.24-18.75 714.49-18.75L714.49-18.75 710.85-18.75Q710.19-18.75 709.76-19.18 709.33-19.6 709.33-20.24L709.33-20.24Q709.33-27.25 722.64-27.25L722.64-27.25Q728.45-27.25 731.97-24.65 735.48-22.05 735.48-16.6L735.48-16.6 735.48-1.49Q735.48-0.83 735.07-0.42 734.65 0 733.99 0L733.99 0 729.28 0Q728.62 0 728.21-0.43 727.79-0.85 727.79-1.49L727.79-1.49 727.79-2.25Q723.93 0.51 718.89 0.5 713.85 0.49 710.62-1.76ZM719.54-11.06Q717.83-11.06 716.84-10.23 715.85-9.4 715.85-8.08 715.85-6.76 716.88-5.91 717.9-5.05 719.78-5.05L719.78-5.05Q723.54-5.05 727.03-7.25L727.03-7.25 727.03-11.06 719.54-11.06ZM760.77-20.56L759.99-20.56 756.23-20.7Q752.94-20.7 749.93-17.09L749.93-17.09 749.93-1.49Q749.93-0.83 749.51-0.42 749.08 0 748.44 0L748.44 0 742.97 0Q742.32 0 741.9-0.42 741.49-0.83 741.49-1.49L741.49-1.49 741.49-25.24Q741.49-25.9 741.91-26.33 742.34-26.76 742.97-26.76L742.97-26.76 748.44-26.76Q749.1-26.76 749.52-26.33 749.93-25.9 749.93-25.24L749.93-25.24 749.93-23.71Q752.42-25.51 754.73-26.38 757.04-27.25 760.77-27.25L760.77-27.25Q761.43-27.25 761.86-26.82 762.29-26.39 762.29-25.76L762.29-25.76 762.29-22.05Q762.29-21.39 761.86-20.97 761.43-20.56 760.77-20.56L760.77-20.56ZM765.77-1.49L765.77-1.49 765.77-25.24Q765.77-25.9 766.2-26.33 766.63-26.76 767.26-26.76L767.26-26.76 772.73-26.76Q773.37-26.76 773.79-26.33 774.22-25.9 774.22-25.24L774.22-25.24 774.22-23.71Q778.42-27.25 783.17-27.25 787.92-27.25 790.9-24.35 793.88-21.46 793.88-15.5L793.88-15.5 793.88-1.49Q793.88-0.85 793.45-0.43 793.02 0 792.36 0L792.36 0 786.92 0Q786.28 0 785.86-0.43 785.43-0.85 785.43-1.49L785.43-1.49 785.43-15.5Q785.43-21.34 780.76-21.34L780.76-21.34Q777.71-21.34 774.22-17.85L774.22-17.85 774.22-1.49Q774.22-0.85 773.79-0.43 773.37 0 772.73 0L772.73 0 767.26 0Q766.63 0 766.2-0.43 765.77-0.85 765.77-1.49ZM803.17-7.91L805.18-7.91Q808.33-7.91 808.33-5.59L808.33-5.59Q808.33-4.96 807.98-4.1L807.98-4.1 805.08 3.25Q804.57 4.44 803.54 5.25 802.52 6.05 801.22 6.05L801.22 6.05 800.27 6.05Q798.73 6.05 798.33 5.41 797.93 4.76 797.93 4.08 797.93 3.39 798.02 2.76L798.02 2.76 799.46-5.1Q799.68-6.25 800.81-7.08 801.93-7.91 803.17-7.91L803.17-7.91ZM831.32-2.34L831.32-2.34 831.32-32.74Q831.32-33.69 832-34.35 832.69-35.01 833.64-35.01L833.64-35.01 861.79-35.01Q862.74-35.01 863.41-34.33 864.08-33.64 864.08-32.69L864.08-32.69 864.08-30.4Q864.08-29.44 863.41-28.77 862.74-28.1 861.79-28.1L861.79-28.1 840.52-28.1 840.52-21 858.83-21Q859.79-21 860.46-20.32 861.13-19.65 861.13-18.7L861.13-18.7 861.13-16.41Q861.13-15.45 860.46-14.78 859.79-14.11 858.83-14.11L858.83-14.11 840.52-14.11 840.52-6.91 861.74-6.91Q862.67-6.91 863.33-6.25 863.98-5.59 863.98-4.64L863.98-4.64 863.98-2.29Q863.98-1.34 863.3-0.67 862.62 0 861.67 0L861.67 0 833.64 0Q832.69 0 832-0.67 831.32-1.34 831.32-2.34ZM868.08-1.49L868.08-1.49 868.08-25.24Q868.08-25.9 868.51-26.33 868.94-26.76 869.57-26.76L869.57-26.76 875.04-26.76Q875.68-26.76 876.1-26.33 876.53-25.9 876.53-25.24L876.53-25.24 876.53-23.71Q880.73-27.25 885.48-27.25 890.23-27.25 893.21-24.35 896.18-21.46 896.18-15.5L896.18-15.5 896.18-1.49Q896.18-0.85 895.76-0.43 895.33 0 894.67 0L894.67 0 889.23 0Q888.59 0 888.16-0.43 887.74-0.85 887.74-1.49L887.74-1.49 887.74-15.5Q887.74-21.34 883.07-21.34L883.07-21.34Q880.02-21.34 876.53-17.85L876.53-17.85 876.53-1.49Q876.53-0.85 876.1-0.43 875.68 0 875.04 0L875.04 0 869.57 0Q868.94 0 868.51-0.43 868.08-0.85 868.08-1.49ZM913.03-2.05Q907.49-2.05 904.08-5.4 900.67-8.74 900.67-14.67 900.67-20.61 904.56-23.93 908.44-27.25 915.69-27.25L915.69-27.25Q919.23-27.25 923.04-26.45 926.85-25.66 928.77-24.51L928.77-24.51 928.77-1.9Q928.77 3.54 925.19 6.14 921.6 8.74 915.12 8.74 908.63 8.74 905.13 7.12 901.63 5.49 901.63 1.76L901.63 1.76Q901.63 1.1 902.05 0.67 902.48 0.24 903.14 0.24L903.14 0.24 906.78 0.24Q908.54 0.24 909.59 1.54L909.59 1.54Q910.93 3.2 914.36 3.2 917.79 3.2 919.06 2.08 920.33 0.95 920.33-1.9L920.33-1.9 920.33-3.05Q916.42-2.05 913.03-2.05L913.03-2.05ZM915.18-21.34L915.18-21.34Q909.39-21.36 909.39-14.66 909.39-7.96 915.03-7.96L915.03-7.96Q917.37-7.96 920.33-8.69L920.33-8.69 920.33-20.8Q918.23-21.36 915.18-21.34ZM936.5-1.76Q933.26-4 933.26-8.11 933.26-12.21 936.5-14.4 939.73-16.6 944.84-16.6L944.84-16.6 952.92-16.6Q952.92-19.46 951.72-20.58 950.53-21.7 947.53-21.7 944.54-21.7 943.34-20.23 942.13-18.75 940.37-18.75L940.37-18.75 936.73-18.75Q936.07-18.75 935.64-19.18 935.22-19.6 935.22-20.24L935.22-20.24Q935.22-27.25 948.52-27.25L948.52-27.25Q954.33-27.25 957.85-24.65 961.37-22.05 961.37-16.6L961.37-16.6 961.37-1.49Q961.37-0.83 960.95-0.42 960.54 0 959.88 0L959.88 0 955.16 0Q954.5 0 954.09-0.43 953.67-0.85 953.67-1.49L953.67-1.49 953.67-2.25Q949.82 0.51 944.78 0.5 939.73 0.49 936.5-1.76ZM945.42-11.06Q943.71-11.06 942.73-10.23 941.74-9.4 941.74-8.08 941.74-6.76 942.76-5.91 943.79-5.05 945.67-5.05L945.67-5.05Q949.43-5.05 952.92-7.25L952.92-7.25 952.92-11.06 945.42-11.06ZM978.21-2.05Q972.67-2.05 969.26-5.4 965.85-8.74 965.85-14.67 965.85-20.61 969.74-23.93 973.62-27.25 980.87-27.25L980.87-27.25Q984.41-27.25 988.22-26.45 992.03-25.66 993.96-24.51L993.96-24.51 993.96-1.9Q993.96 3.54 990.37 6.14 986.78 8.74 980.3 8.74 973.81 8.74 970.31 7.12 966.81 5.49 966.81 1.76L966.81 1.76Q966.81 1.1 967.23 0.67 967.66 0.24 968.32 0.24L968.32 0.24 971.96 0.24Q973.72 0.24 974.77 1.54L974.77 1.54Q976.11 3.2 979.54 3.2 982.97 3.2 984.24 2.08 985.51 0.95 985.51-1.9L985.51-1.9 985.51-3.05Q981.6-2.05 978.21-2.05L978.21-2.05ZM980.36-21.34L980.36-21.34Q974.57-21.36 974.57-14.66 974.57-7.96 980.21-7.96L980.21-7.96Q982.55-7.96 985.51-8.69L985.51-8.69 985.51-20.8Q983.41-21.36 980.36-21.34ZM1002.2-3.08Q998.45-6.64 998.45-13.34 998.45-20.04 1002.23-23.65 1006.01-27.25 1012.73-27.25 1019.44-27.25 1023.2-23.74 1026.96-20.24 1026.96-13.7L1026.96-13.7 1026.96-12.3Q1026.96-11.65 1026.53-11.22 1026.11-10.79 1025.45-10.79L1025.45-10.79 1007.06-10.79Q1007.31-7.79 1008.78-6.42 1010.26-5.05 1013.51-5.05 1016.76-5.05 1017.95-6.52 1019.15-7.98 1020.91-8.01L1020.91-8.01 1024.54-8.01Q1025.2-8.01 1025.63-7.58 1026.06-7.15 1026.06-6.49L1026.06-6.49Q1026.06 0.51 1012.7 0.49L1012.7 0.49Q1005.96 0.49 1002.2-3.08ZM1007.01-15.94L1007.01-15.94 1018.37-15.94Q1018.12-21.7 1012.72-21.7 1007.31-21.7 1007.01-15.94ZM1034.75-7.91L1036.75-7.91Q1039.9-7.91 1039.9-5.59L1039.9-5.59Q1039.9-4.96 1039.56-4.1L1039.56-4.1 1036.65 3.25Q1036.14 4.44 1035.11 5.25 1034.09 6.05 1032.79 6.05L1032.79 6.05 1031.84 6.05Q1030.3 6.05 1029.9 5.41 1029.5 4.76 1029.5 4.08 1029.5 3.39 1029.59 2.76L1029.59 2.76 1031.04-5.1Q1031.26-6.25 1032.38-7.08 1033.5-7.91 1034.75-7.91L1034.75-7.91ZM1062.89-2.34L1062.89-2.34 1062.89-32.74Q1062.89-33.69 1063.57-34.35 1064.26-35.01 1065.21-35.01L1065.21-35.01 1093.36-35.01Q1094.31-35.01 1094.98-34.33 1095.65-33.64 1095.65-32.69L1095.65-32.69 1095.65-30.4Q1095.65-29.44 1094.98-28.77 1094.31-28.1 1093.36-28.1L1093.36-28.1 1072.09-28.1 1072.09-21 1090.41-21Q1091.36-21 1092.03-20.32 1092.7-19.65 1092.7-18.7L1092.7-18.7 1092.7-16.41Q1092.7-15.45 1092.03-14.78 1091.36-14.11 1090.41-14.11L1090.41-14.11 1072.09-14.11 1072.09-6.91 1093.31-6.91Q1094.24-6.91 1094.9-6.25 1095.56-5.59 1095.56-4.64L1095.56-4.64 1095.56-2.29Q1095.56-1.34 1094.87-0.67 1094.19 0 1093.24 0L1093.24 0 1065.21 0Q1064.26 0 1063.57-0.67 1062.89-1.34 1062.89-2.34ZM1097.51-0.76L1097.51-0.76Q1097.41-1 1097.41-1.35 1097.41-1.71 1097.8-2.15L1097.8-2.15 1106.3-13.4 1098.36-24.61Q1097.58-25.63 1098.26-26.42L1098.26-26.42Q1098.56-26.76 1099.09-26.76L1099.09-26.76 1104.39-26.76Q1106.76-26.76 1108.2-24.61L1108.2-24.61 1112.25-18.46 1116.31-24.61Q1117.75-26.76 1120.11-26.76L1120.11-26.76 1125.41-26.76Q1125.95-26.76 1126.24-26.42L1126.24-26.42Q1126.93-25.63 1126.15-24.61L1126.15-24.61 1118.21-13.4 1126.71-2.15Q1127.1-1.71 1127.1-1.33 1127.1-0.95 1127-0.76L1127-0.76Q1126.8 0 1125.95 0L1125.95 0 1120.75 0Q1118.5 0 1116.94-2.15L1116.94-2.15 1112.25-8.5 1107.54-2.15Q1106 0 1103.76 0L1103.76 0 1098.56 0Q1097.7 0 1097.51-0.76ZM1143.32 0.49Q1136.47 0.49 1132.66-3.03 1128.85-6.54 1128.85-13.37 1128.85-20.19 1132.64-23.72 1136.42-27.25 1143.17-27.25 1149.92-27.25 1153.55-25.1 1157.17-22.95 1157.17-18.75L1157.17-18.75Q1157.17-18.09 1156.75-17.68 1156.32-17.26 1155.66-17.26L1155.66-17.26 1152.02-17.26Q1150.36-17.26 1149.21-19.04L1149.21-19.04Q1147.77-21.34 1144.12-21.34 1140.47-21.34 1139.02-19.47 1137.57-17.6 1137.57-13.38 1137.57-9.16 1139.07-7.28 1140.57-5.4 1144.29-5.4 1148.02-5.4 1149.46-7.69L1149.46-7.69Q1150.61-9.5 1152.27-9.5L1152.27-9.5 1155.9-9.5Q1156.56-9.5 1156.99-9.07 1157.42-8.64 1157.42-8.01L1157.42-8.01Q1157.42-3.81 1153.79-1.66 1150.17 0.49 1143.32 0.49ZM1163.66-3.08Q1159.9-6.64 1159.9-13.34 1159.9-20.04 1163.69-23.65 1167.47-27.25 1174.19-27.25 1180.9-27.25 1184.66-23.74 1188.42-20.24 1188.42-13.7L1188.42-13.7 1188.42-12.3Q1188.42-11.65 1187.99-11.22 1187.57-10.79 1186.91-10.79L1186.91-10.79 1168.52-10.79Q1168.77-7.79 1170.24-6.42 1171.72-5.05 1174.97-5.05 1178.22-5.05 1179.41-6.52 1180.61-7.98 1182.37-8.01L1182.37-8.01 1186-8.01Q1186.66-8.01 1187.09-7.58 1187.52-7.15 1187.52-6.49L1187.52-6.49Q1187.52 0.51 1174.16 0.49L1174.16 0.49Q1167.42 0.49 1163.66-3.08ZM1168.47-15.94L1168.47-15.94 1179.83-15.94Q1179.58-21.7 1174.17-21.7 1168.77-21.7 1168.47-15.94ZM1192.91-1.49L1192.91-1.49 1192.91-33.5Q1192.91-34.16 1193.34-34.58 1193.76-35.01 1194.4-35.01L1194.4-35.01 1199.87-35.01Q1200.5-35.01 1200.93-34.58 1201.36-34.16 1201.36-33.5L1201.36-33.5 1201.36-1.49Q1201.36-0.85 1200.93-0.43 1200.5 0 1199.87 0L1199.87 0 1194.4 0Q1193.76 0 1193.34-0.43 1192.91-0.85 1192.91-1.49ZM1208.12-12.65L1207.41-32.69Q1207.36-33.64 1208.06-34.33 1208.75-35.01 1209.7-35.01L1209.7-35.01 1214.95-35.01Q1215.91-35.01 1216.6-34.33 1217.3-33.64 1217.25-32.69L1217.25-32.69 1216.56-12.65Q1216.52-11.69 1215.86-11.05 1215.2-10.4 1214.27-10.4L1214.27-10.4 1210.41-10.4Q1209.46-10.4 1208.81-11.05 1208.17-11.69 1208.12-12.65L1208.12-12.65ZM1210.85-7.91L1213.85-7.91Q1217.15-7.91 1217.15-4.59L1217.15-4.59 1217.15-3.05Q1217.15-1.51 1216.31-0.63 1215.47 0.24 1213.85 0.24L1213.85 0.24 1210.85 0.24Q1209.24 0.24 1208.4-0.63 1207.56-1.51 1207.56-3.05L1207.56-3.05 1207.56-4.59Q1207.56-6.2 1208.41-7.06 1209.26-7.91 1210.85-7.91L1210.85-7.91Z" opacity="1" transform="matrix(1,0,0,1,0,0)" fill="#ffffff" class="slogan-text-1" data-fill-palette-color="secondary" id="text-1"></path></svg></g></svg></g></svg></g></svg></g><g><svg viewBox="0 0 104.38133933344365 90.4279124414143" height="90.4279124414143" width="104.38133933344365"><g><svg xmlns="http://www.w3.org/2000/svg" xmlns:xlink="http://www.w3.org/1999/xlink" version="1.0" x="0" y="0" viewBox="41.32341221585598 42.48346349115535 17.353175568288037 15.033448036692008" enable-background="new 0 0 100 100" xml:space="preserve" height="90.4279124414143" width="104.38133933344365" class="icon-icon-0" data-fill-palette-color="accent" id="icon-0"><g fill="#ff1414" data-fill-palette-color="accent"><path d="M58.356 45.334C57.68 43.648 56.302 42.612 54.578 42.494 52.845 42.379 51.1 43.213 50 44.622 48.9 43.212 47.165 42.38 45.422 42.494 43.698 42.612 42.322 43.648 41.644 45.334 40.972 47.007 41.364 48.8 42.749 50.38 43.519 51.261 44.337 52.144 45.179 53.005 46.09 53.937 47.029 54.84 47.969 55.745 48.53 56.285 49.093 56.826 49.649 57.373A0.5 0.5 0 0 0 50.351 57.373C50.907 56.826 51.469 56.285 52.03 55.745 52.971 54.84 53.91 53.937 54.821 53.005 55.663 52.145 56.481 51.26 57.251 50.38 58.636 48.8 59.028 47.007 58.356 45.334M56.5 49.722A64 64 0 0 1 54.106 52.306C53.202 53.23 52.27 54.127 51.338 55.024 50.89 55.454 50.444 55.884 50 56.317 49.556 55.884 49.11 55.453 48.662 55.024A129 129 0 0 1 45.894 52.306 64 64 0 0 1 43.5 49.722C42.851 48.978 41.864 47.468 42.571 45.707 43.108 44.371 44.145 43.584 45.491 43.492 45.576 43.486 45.663 43.482 45.75 43.482 47.264 43.483 48.771 44.376 49.565 45.766 49.745 46.076 50.255 46.076 50.435 45.765 51.275 44.295 52.915 43.386 54.51 43.492 55.855 43.584 56.892 44.37 57.429 45.707 58.136 47.468 57.149 48.978 56.499 49.722" fill="#ffffff" data-fill-palette-color="accent"></path></g></svg></g></svg></g></svg></g><defs></defs></svg><rect width="395.52" height="68.20051045957896" fill="none" stroke="none" visibility="hidden"></rect></g></svg></g></svg>